<?xml version="1.0" encoding="UTF-8" standalone="no"?>
<svg
   xmlns:dc="http://purl.org/dc/elements/1.1/"
   xmlns:cc="http://creativecommons.org/ns#"
   xmlns:rdf="http://www.w3.org/1999/02/22-rdf-syntax-ns#"
   xmlns:svg="http://www.w3.org/2000/svg"
   xmlns="http://www.w3.org/2000/svg"
   xmlns:xlink="http://www.w3.org/1999/xlink"
   xmlns:sodipodi="http://sodipodi.sourceforge.net/DTD/sodipodi-0.dtd"
   xmlns:inkscape="http://www.inkscape.org/namespaces/inkscape"
   width="100%"
   height="100%"
   viewBox="0 0 329 209"
   version="1.1"
   xml:space="preserve"
   style="fill-rule:evenodd;clip-rule:evenodd;stroke-linejoin:round;stroke-miterlimit:2;"
   id="svg907"
   sodipodi:docname="placeholder_hero.svg"
   inkscape:version="0.92.4 (5da689c313, 2019-01-14)"><metadata
   id="metadata913"><rdf:RDF><cc:Work
       rdf:about=""><dc:format>image/svg+xml</dc:format><dc:type
         rdf:resource="http://purl.org/dc/dcmitype/StillImage" /></cc:Work></rdf:RDF></metadata><defs
   id="defs911"><linearGradient
     inkscape:collect="always"
     id="linearGradient919"><stop
       style="stop-color:#000000;stop-opacity:1;"
       offset="0"
       id="stop915" /><stop
       style="stop-color:#000000;stop-opacity:0;"
       offset="1"
       id="stop917" /></linearGradient><linearGradient
     inkscape:collect="always"
     xlink:href="#linearGradient919"
     id="linearGradient921"
     x1="7"
     y1="16.5"
     x2="26"
     y2="16.5"
     gradientUnits="userSpaceOnUse" /></defs><sodipodi:namedview
   pagecolor="#ffffff"
   bordercolor="#666666"
   borderopacity="1"
   objecttolerance="10"
   gridtolerance="10"
   guidetolerance="10"
   inkscape:pageopacity="0"
   inkscape:pageshadow="2"
   inkscape:window-width="2880"
   inkscape:window-height="1526"
   id="namedview909"
   showgrid="false"
   inkscape:zoom="6.2344498"
   inkscape:cx="164.5"
   inkscape:cy="117.33193"
   inkscape:window-x="8629"
   inkscape:window-y="1329"
   inkscape:window-maximized="1"
   inkscape:current-layer="svg907" />
    <g
   id="document-graph"
   transform="matrix(3.26511,0,0,3.26511,28.1813,110.349)"
   style="fill:#F5F5F5;fill-opacity:1">
        <path
   d="M 19,3 H 9.009 C 7.899,3 7,3.898 7,5.007 V 27.993 C 7,29.101 7.891,30 8.997,30 H 24.003 C 25.106,30 26,29.109 26,28.003 V 11 H 21.006 C 19.898,11 19,10.113 19,9.002 Z m 1,0 V 8.997 C 20,9.551 20.451,10 20.991,10 H 26 Z M 14.959,21.801 12,24.975 V 25 h 10 v 1 H 11 v -8 h 1 v 5.509 l 2.91,-3.121 2.194,2.046 L 20.306,19 H 19 v -1 h 3 v 3 h -1 v -1.277 l -3.847,4.124 z"
   style="fill:#F5F5F5;fill-opacity:1"
   id="path865"
   inkscape:connector-curvature="0" />
    </g>
    <g
   id="document-font"
   transform="matrix(1.18519,0,0,1.18519,288.704,140.444)"
   style="fill:#F5F5F5;fill-opacity:1">
        <path
   d="M 22,25.5 C 21.582,25.814 21.063,26 20.5,26 19.119,26 18,24.881 18,23.5 18,22.119 19.119,21 20.5,21 c 0.563,0 1.082,0.186 1.5,0.5 V 21 h 1 v 5 H 22 Z M 14.929,23 16,26 h 1 l -3,-8 h -1 l -3,8 h 1 l 1.071,-3 z M 14.571,22 13.5,19 12.429,22 Z M 19,3 H 9.009 C 7.899,3 7,3.898 7,5.007 V 27.993 C 7,29.101 7.891,30 8.997,30 H 24.003 C 25.106,30 26,29.109 26,28.003 V 11 H 21.006 C 19.898,11 19,10.113 19,9.002 Z m 1,0 V 8.997 C 20,9.551 20.451,10 20.991,10 H 26 Z m 0.5,22 C 21.328,25 22,24.328 22,23.5 22,22.672 21.328,22 20.5,22 19.672,22 19,22.672 19,23.5 c 0,0.828 0.672,1.5 1.5,1.5 z"
   style="fill:#F5F5F5;fill-opacity:1"
   id="path868"
   inkscape:connector-curvature="0" />
    </g>
    <g
   id="document-diagrams"
   transform="matrix(2.10526,0,0,2.10526,273.522,9.68421)"
   style="fill-opacity:1;fill:#F5F5F5">
        <path
   d="M 19,3 H 9.009 C 7.899,3 7,3.898 7,5.007 V 27.993 C 7,29.101 7.891,30 8.997,30 H 24.003 C 25.106,30 26,29.109 26,28.003 V 11 H 21.006 C 19.898,11 19,10.113 19,9.002 Z m 1,0 V 8.997 C 20,9.551 20.451,10 20.991,10 H 26 Z m -9,18 v 4 h 3 v -4 z m 4,-5 v 9 h 3 v -9 z m 4,3 v 6 h 3 v -6 z"
   style="fill:#F5F5F5;fill-opacity:1"
   id="path871"
   inkscape:connector-curvature="0" />
    </g>
    <g
   id="mail-envelope-open"
   transform="matrix(2.48148,0,0,2.48148,-9.92593,-7.44444)"
   style="fill:#F5F5F5;fill-opacity:1">
        <path
   d="M11.293,19L8,16.2L8,8.002C8,7.444 8.448,7 9,7L24,7C24.545,7 25,7.449 25,8.002L25,16.2L21.667,19L11.293,19ZM12.469,20L14.252,21.516L18.672,21.516L20.476,20L12.469,20ZM22.185,20.127L20,22L25.923,27.077L25.115,27.885L19.12,22.745L13.896,22.768L13.875,22.75L7.885,27.885L7.077,27.077L13,22L10.815,20.127L7,16.9L7,11.36L4,14L4,28.006C4,29.107 4.89,30 6.004,30L26.996,30C28.103,30 29,29.105 29,28.006L29,14L26,11.36L26,16.9L22.185,20.127ZM19.909,6L16.5,3L13.091,6L19.909,6ZM10,10L10,11L23,11L23,10L10,10ZM10,13L10,14L23,14L23,13L10,13ZM10,16L10,17L23,17L23,16L10,16Z"
   style="fill:#F5F5F5;fill-opacity:1"
   id="path874" />
    </g>
    <g
   id="document-image"
   transform="matrix(1.76218,0,0,1.76218,188.665,4.42398)"
   style="fill:#F5F5F5;fill-opacity:1">
        <path
   d="M 22,24.046 V 18 H 11 v 7 l 2.5,-2 1.458,1.25 L 18.593,21 Z M 19,3 H 9.009 C 7.899,3 7,3.898 7,5.007 V 27.993 C 7,29.101 7.891,30 8.997,30 H 24.003 C 25.106,30 26,29.109 26,28.003 V 11 H 21.006 C 19.898,11 19,10.113 19,9.002 Z m 1,0 V 8.997 C 20,9.551 20.451,10 20.991,10 H 26 Z M 10,17 V 27 H 23 V 17 Z m 4,4 c 0.552,0 1,-0.448 1,-1 0,-0.552 -0.448,-1 -1,-1 -0.552,0 -1,0.448 -1,1 0,0.552 0.448,1 1,1 z"
   style="fill:#F5F5F5;fill-opacity:1"
   id="path877"
   inkscape:connector-curvature="0" />
    </g>
    <g
   id="document-file-jpg"
   transform="matrix(2.61671,0,0,2.61671,103.73,10.8243)"
   style="fill:#F5F5F5;fill-opacity:1">
        <path
   d="m 21,26 v 2.003 C 21,29.109 20.106,30 19.003,30 H 3.997 C 2.891,30 2,29.101 2,27.993 V 5.007 C 2,3.898 2.899,3 4.009,3 H 14 V 9.002 C 14,10.113 14.898,11 16.006,11 H 21 v 2 H 12.007 C 10.346,13 9,14.342 9,15.999 v 7.002 C 9,24.657 10.336,26 12.007,26 Z M 15,3 V 8.997 C 15,9.551 15.451,10 15.991,10 H 21 Z M 11.995,14 C 10.893,14 10,14.9 10,15.992 v 7.016 c 0,1.1 0.902,1.992 1.995,1.992 h 17.01 C 30.107,25 31,24.1 31,23.008 V 15.992 C 31,14.892 30.098,14 29.005,14 Z M 12,20 v 0.994 C 12,22.102 12.894,23 14.005,23 h 0.99 C 16.102,23 17,22.113 17,20.994 V 16 h -1 v 5.009 C 16,21.549 15.553,22 15.001,22 H 13.999 C 13.443,22 13,21.552 13,21 v -1 z m 6,-4 v 7 h 1 v -3 h 1.995 C 22.102,20 23,19.112 23,18 23,16.895 22.106,16 20.995,16 Z m 1,1 v 2 h 2.001 C 21.553,19 22,18.556 22,18 22,17.448 21.557,17 21.001,17 Z m 9,3 v 2 h -2 c -0.556,0 -1,-0.448 -1,-1 v -3 c 0,-0.556 0.448,-1 1,-1 h 3 V 16 H 26.005 C 24.898,16 24,16.887 24,18.006 v 2.988 C 24,22.102 24.894,23 26.005,23 H 29 v -4 h -3 v 1 z"
   style="fill:#F5F5F5;fill-opacity:1"
   id="path880"
   inkscape:connector-curvature="0" />
    </g>
    <g
   id="printer-text"
   transform="translate(137,103.151)"
   style="fill:#F5F5F5;fill-opacity:1">
        <path
   d="M 6,9 V 2.997 C 6,1.896 6.894,1 7.997,1 H 23.003 C 24.109,1 25,1.894 25,2.997 V 9 Z M 5,25 H 3.994 C 2.341,25 1,23.657 1,22.001 V 12.999 C 1,11.344 2.341,10 3.994,10 H 27.006 C 28.659,10 30,11.343 30,12.999 v 9.002 C 30,23.656 28.659,25 27.006,25 H 26 V 20 H 5 Z m 1,-4 v 8 c 0,1.105 0.891,2 1.997,2 H 23.003 C 24.106,31 25,30.113 25,29 v -8 z m 18,-5 c 0.552,0 1,-0.448 1,-1 0,-0.552 -0.448,-1 -1,-1 -0.552,0 -1,0.448 -1,1 0,0.552 0.448,1 1,1 z M 8,24 v 1 h 15 v -1 z m 0,3 v 1 h 15 v -1 z"
   style="fill:#F5F5F5;fill-opacity:1"
   id="path883"
   inkscape:connector-curvature="0" />
    </g>
    <g
   id="document-file-txt"
   transform="translate(10,78)"
   style="fill:#F5F5F5;fill-opacity:1">
        <path
   d="m 21,26 v 2.003 C 21,29.109 20.106,30 19.003,30 H 3.997 C 2.891,30 2,29.101 2,27.993 V 5.007 C 2,3.898 2.899,3 4.009,3 H 14 V 9.002 C 14,10.113 14.898,11 16.006,11 H 21 v 2 H 12.007 C 10.346,13 9,14.342 9,15.999 v 7.002 C 9,24.657 10.336,26 12.007,26 Z M 15,3 V 8.997 C 15,9.551 15.451,10 15.991,10 H 21 Z M 11.995,14 C 10.893,14 10,14.9 10,15.992 v 7.016 c 0,1.1 0.902,1.992 1.995,1.992 h 17.01 C 30.107,25 31,24.1 31,23.008 V 15.992 C 31,14.892 30.098,14 29.005,14 Z M 14,17 v 6 h 1 v -6 h 2 v -1 h -5 v 1 z m 6,2.5 -2,-3.5 h 1 L 20.5,18.625 22,16 h 1 l -2,3.5 2,3.5 H 22 L 20.5,20.375 19,23 H 18 Z M 26,17 v 6 h 1 v -6 h 2 v -1 h -5 v 1 z"
   style="fill:#F5F5F5;fill-opacity:1"
   id="path886"
   inkscape:connector-curvature="0" />
    </g>
    <g
   id="document-file-gif"
   transform="translate(69,3.5)"
   style="fill:#F5F5F5;fill-opacity:1">
        <path
   d="m 21,26 v 2.003 C 21,29.109 20.106,30 19.003,30 H 3.997 C 2.891,30 2,29.101 2,27.993 V 5.007 C 2,3.898 2.899,3 4.009,3 H 14 V 9.002 C 14,10.113 14.898,11 16.006,11 H 21 v 2 H 12.007 C 10.346,13 9,14.342 9,15.999 v 7.002 C 9,24.657 10.336,26 12.007,26 Z M 15,3 V 8.997 C 15,9.551 15.451,10 15.991,10 H 21 Z M 11.995,14 C 10.893,14 10,14.9 10,15.992 v 7.016 c 0,1.1 0.902,1.992 1.995,1.992 h 17.01 C 30.107,25 31,24.1 31,23.008 V 15.992 C 31,14.892 30.098,14 29.005,14 Z M 17,20 v 2 h -2 c -0.556,0 -1,-0.448 -1,-1 v -3 c 0,-0.556 0.448,-1 1,-1 h 3 V 16 H 15.005 C 13.898,16 13,16.887 13,18.006 v 2.988 C 13,22.102 13.894,23 15.005,23 H 18 v -4 h -3 v 1 z m 3,-3 v 5 h -1 v 1 h 3 v -1 h -1 v -5 h 1 v -1 h -3 v 1 z m 4,2 v -2 h 4 v -1 h -5 v 7 h 1 v -3 h 3 v -1 z"
   style="fill:#F5F5F5;fill-opacity:1"
   id="path889"
   inkscape:connector-curvature="0" />
    </g>
    <g
   id="document-file-png"
   transform="translate(10,135.5)"
   style="fill:#F5F5F5;fill-opacity:1">
        <path
   d="m 21,26 v 2.003 C 21,29.109 20.106,30 19.003,30 H 3.997 C 2.891,30 2,29.101 2,27.993 V 5.007 C 2,3.898 2.899,3 4.009,3 H 14 V 9.002 C 14,10.113 14.898,11 16.006,11 H 21 v 2 H 12.007 C 10.346,13 9,14.342 9,15.999 v 7.002 C 9,24.657 10.336,26 12.007,26 Z M 15,3 V 8.997 C 15,9.551 15.451,10 15.991,10 H 21 Z M 11.995,14 C 10.893,14 10,14.9 10,15.992 v 7.016 c 0,1.1 0.902,1.992 1.995,1.992 h 17.01 C 30.107,25 31,24.1 31,23.008 V 15.992 C 31,14.892 30.098,14 29.005,14 Z M 12,16 v 7 h 1 v -3 h 1.995 C 16.102,20 17,19.112 17,18 17,16.895 16.106,16 14.995,16 Z m 1,1 v 2 h 2.001 C 15.553,19 16,18.556 16,18 16,17.448 15.557,17 15.001,17 Z m 6,1 v 5 h -1 v -7 h 1 l 3,5 v -5 h 1 v 7 h -1 z m 9,2 v 2 h -2 c -0.556,0 -1,-0.448 -1,-1 v -3 c 0,-0.556 0.448,-1 1,-1 h 3 V 16 H 26.005 C 24.898,16 24,16.887 24,18.006 v 2.988 C 24,22.102 24.894,23 26.005,23 H 29 v -4 h -3 v 1 z"
   style="fill:#F5F5F5;fill-opacity:1"
   id="path892"
   inkscape:connector-curvature="0" />
    </g>
    <g
   id="document-file-pdf"
   transform="matrix(2.10526,0,0,2.10526,191.789,60.6842)"
   style="fill:#F5F5F5;fill-opacity:1">
        <path
   d="m 21,26 v 2.003 C 21,29.109 20.106,30 19.003,30 H 3.997 C 2.891,30 2,29.101 2,27.993 V 5.007 C 2,3.898 2.899,3 4.009,3 H 14 V 9.002 C 14,10.113 14.898,11 16.006,11 H 21 v 2 H 12.007 C 10.346,13 9,14.342 9,15.999 v 7.002 C 9,24.657 10.336,26 12.007,26 Z M 15,3 V 8.997 C 15,9.551 15.451,10 15.991,10 H 21 Z M 11.995,14 C 10.893,14 10,14.9 10,15.992 v 7.016 c 0,1.1 0.902,1.992 1.995,1.992 h 17.01 C 30.107,25 31,24.1 31,23.008 V 15.992 C 31,14.892 30.098,14 29.005,14 Z M 25,19 v -2 h 4 v -1 h -5 v 7 h 1 v -3 h 3 V 19 Z M 12,16 v 7 h 1 v -3 h 1.995 C 16.102,20 17,19.112 17,18 17,16.895 16.106,16 14.995,16 Z m 1,1 v 2 h 2.001 C 15.553,19 16,18.556 16,18 16,17.448 15.557,17 15.001,17 Z m 5,-1 v 7 h 2.995 C 22.102,23 23,22.113 23,20.994 V 18.006 C 23,16.898 22.106,16 20.995,16 Z m 1,1 v 5 h 2.001 C 21.553,22 22,21.556 22,21 v -3 c 0,-0.552 -0.443,-1 -0.999,-1 z"
   style="fill:#F5F5F5;fill-opacity:1"
   id="path895"
   inkscape:connector-curvature="0" />
    </g>
    <g
   id="document-file-docx"
   transform="translate(141,149)"
   style="fill:#F5F5F5;fill-opacity:1">
        <path
   d="m 19,26 v 2.003 C 19,29.109 18.106,30 17.003,30 H 1.997 C 0.891,30 0,29.101 0,27.993 V 5.007 C 0,3.898 0.899,3 2.009,3 H 12 V 9.002 C 12,10.113 12.898,11 14.006,11 H 19 v 2 H 6.007 C 4.346,13 3,14.342 3,15.999 v 7.002 C 3,24.657 4.336,26 6.007,26 Z M 13,3 V 8.997 C 13,9.551 13.451,10 13.991,10 H 19 Z M 6.007,14 C 4.899,14 4,14.9 4,15.992 v 7.016 C 4,24.108 4.898,25 6.007,25 H 28.993 C 30.101,25 31,24.1 31,23.008 V 15.992 C 31,14.892 30.102,14 28.993,14 Z M 6,16 v 7 H 8.995 C 10.102,23 11,22.113 11,20.994 V 18.006 C 11,16.898 10.106,16 8.995,16 Z m 1,1 v 5 H 9.001 C 9.553,22 10,21.556 10,21 V 18 C 10,17.448 9.557,17 9.001,17 Z m 7.005,-1 C 12.898,16 12,16.887 12,18.006 v 2.988 C 12,22.102 12.894,23 14.005,23 h 0.99 C 16.102,23 17,22.113 17,20.994 V 18.006 C 17,16.898 16.106,16 14.995,16 Z m -0.006,1 C 13.447,17 13,17.444 13,18 v 3 c 0,0.552 0.443,1 0.999,1 h 1.002 C 15.553,22 16,21.556 16,21 v -3 c 0,-0.552 -0.443,-1 -0.999,-1 z M 23,21 c -0.003,1.117 -0.9,2 -2.005,2 h -0.99 C 18.894,23 18,22.102 18,20.994 V 18.006 C 18,16.887 18.898,16 20.005,16 h 0.99 c 1.109,0 2.002,0.895 2.005,2 h -1 c 0,-0.552 -0.443,-1 -0.999,-1 H 19.999 C 19.447,17 19,17.444 19,18 v 3 c 0,0.552 0.443,1 0.999,1 h 1.002 C 21.553,22 22,21.556 22,21 Z M 26,19.5 24,16 h 1 L 26.5,18.625 28,16 h 1 l -2,3.5 2,3.5 H 28 L 26.5,20.375 25,23 h -1 z"
   style="fill:#F5F5F5;fill-opacity:1"
   id="path898"
   inkscape:connector-curvature="0" />
    </g>
    <g
   id="document-file-xls"
   transform="translate(248.634,48)"
   style="fill:#F5F5F5;fill-opacity:1">
        <path
   d="m 21,26 v 2.003 C 21,29.109 20.106,30 19.003,30 H 3.997 C 2.891,30 2,29.101 2,27.993 V 5.007 C 2,3.898 2.899,3 4.009,3 H 14 V 9.002 C 14,10.113 14.898,11 16.006,11 H 21 v 2 H 12.007 C 10.346,13 9,14.342 9,15.999 v 7.002 C 9,24.657 10.336,26 12.007,26 Z M 15,3 V 8.997 C 15,9.551 15.451,10 15.991,10 H 21 Z M 11.995,14 C 10.893,14 10,14.9 10,15.992 v 7.016 c 0,1.1 0.902,1.992 1.995,1.992 h 17.01 C 30.107,25 31,24.1 31,23.008 V 15.992 C 31,14.892 30.098,14 29.005,14 Z M 14,19.5 12,16 h 1 L 14.5,18.625 16,16 h 1 l -2,3.5 2,3.5 H 16 L 14.5,20.375 13,23 h -1 z m 9,2.5 v 1 h -5 v -7 h 1 v 6 z m 3.005,-6 C 24.898,16 24,16.888 24,18 c 0,1.105 0.888,2 2,2 h 0.991 c 0.557,0 1.009,0.444 1.009,1 0,0.552 -0.443,1 -0.999,1 H 25.999 C 25.447,22 25,21.544 25,21.004 v -0.011 h -1 v 0.006 C 24,22.104 24.894,23 26.005,23 h 0.99 C 28.102,23 29,22.112 29,21 29,19.895 28.112,19 27,19 H 26.009 C 25.452,19 25,18.556 25,18 c 0,-0.552 0.443,-1 0.999,-1 h 1.002 C 27.553,17 28,17.453 28,18 h 1 c 0,-1.105 -0.894,-2 -2.005,-2 z"
   style="fill:#F5F5F5;fill-opacity:1"
   id="path901"
   inkscape:connector-curvature="0" />
    </g>
    <g
   id="document-file-tiff"
   transform="translate(237.5,154)"
   style="fill:#F5F5F5;fill-opacity:1">
        <path
   d="m 19,26 v 2.003 C 19,29.109 18.106,30 17.003,30 H 1.997 C 0.891,30 0,29.101 0,27.993 V 5.007 C 0,3.898 0.899,3 2.009,3 H 12 V 9.002 C 12,10.113 12.898,11 14.006,11 H 19 v 2 H 8.007 C 6.346,13 5,14.342 5,15.999 v 7.002 C 5,24.657 6.336,26 8.007,26 Z M 13,3 V 8.997 C 13,9.551 13.451,10 13.991,10 H 19 Z M 8.004,14 C 6.897,14 6,14.9 6,15.992 v 7.016 C 6,24.108 6.89,25 8.004,25 H 28.996 C 30.103,25 31,24.1 31,23.008 V 15.992 C 31,14.892 30.11,14 28.996,14 Z M 10,17 v 6 h 1 v -6 h 2 V 16 H 8 v 1 z m 5,0 v 5 h -1 v 1 h 3 v -1 h -1 v -5 h 1 v -1 h -3 v 1 z m 4,2 v -2 h 4 v -1 h -5 v 7 h 1 v -3 h 3 v -1 z m 6,0 v -2 h 4 v -1 h -5 v 7 h 1 v -3 h 3 v -1 z"
   style="fill:#F5F5F5;fill-opacity:1"
   id="path904"
   inkscape:connector-curvature="0" />
    </g>
</svg>